<svg width="197" height="43" viewBox="0 0 197 43" fill="none" xmlns="http://www.w3.org/2000/svg">
<path d="M17 16.3125C16.5156 14.6562 15.8047 13.4844 14.8672 12.7969C13.9297 12.1094 12.6953 11.7656 11.1641 11.7656C10.0859 11.7656 9.125 12.0078 8.28125 12.4922C7.4375 12.9766 6.72656 13.625 6.14844 14.4375C5.58594 15.25 5.14844 16.1875 4.83594 17.25C4.53906 18.3125 4.39062 19.4219 4.39062 20.5781C4.39062 21.7812 4.53906 22.9766 4.83594 24.1641C5.14844 25.3359 5.59375 26.3828 6.17188 27.3047C6.75 28.2266 7.45312 28.9766 8.28125 29.5547C9.10938 30.1172 10.0469 30.3984 11.0938 30.3984C11.9375 30.3984 12.6875 30.25 13.3438 29.9531C14.0156 29.6406 14.5859 29.2266 15.0547 28.7109C15.5391 28.1953 15.9375 27.5938 16.25 26.9062C16.5625 26.2188 16.7891 25.4844 16.9297 24.7031H20.75C20.5781 26.0625 20.2266 27.2891 19.6953 28.3828C19.1797 29.4609 18.5 30.3828 17.6562 31.1484C16.8281 31.8984 15.8438 32.4766 14.7031 32.8828C13.5781 33.2734 12.3281 33.4688 10.9531 33.4688C9.78125 33.4688 8.71875 33.2891 7.76562 32.9297C6.82812 32.5703 5.98438 32.0859 5.23438 31.4766C4.5 30.8516 3.85938 30.125 3.3125 29.2969C2.76562 28.4531 2.3125 27.5547 1.95312 26.6016C1.60938 25.6484 1.35156 24.6562 1.17969 23.625C1.00781 22.5938 0.921875 21.5781 0.921875 20.5781C0.921875 18.9375 1.16406 17.3984 1.64844 15.9609C2.13281 14.5078 2.82031 13.2422 3.71094 12.1641C4.61719 11.0859 5.70312 10.2344 6.96875 9.60938C8.23438 8.98437 9.65625 8.67188 11.2344 8.67188C12.6094 8.67188 13.8281 8.86719 14.8906 9.25781C15.9688 9.63281 16.8984 10.1641 17.6797 10.8516C18.4609 11.5234 19.1016 12.3281 19.6016 13.2656C20.1016 14.2031 20.4609 15.2188 20.6797 16.3125H17ZM51.2656 9.14062H54.7344V12.8203C55.2188 12.0859 55.7578 11.4609 56.3516 10.9453C56.9609 10.4141 57.5859 9.98438 58.2266 9.65625C58.8828 9.3125 59.5391 9.0625 60.1953 8.90625C60.8516 8.75 61.4766 8.67188 62.0703 8.67188C63.2578 8.67188 64.375 9 65.4219 9.65625C66.4688 10.2969 67.4297 11.4141 68.3047 13.0078C68.7578 12.2422 69.2812 11.5859 69.875 11.0391C70.4844 10.4922 71.125 10.0469 71.7969 9.70312C72.4688 9.34375 73.1562 9.08594 73.8594 8.92969C74.5625 8.75781 75.25 8.67188 75.9219 8.67188C77 8.67188 77.9844 8.85156 78.875 9.21094C79.7812 9.57031 80.5625 10.0703 81.2188 10.7109C81.875 11.3359 82.3828 12.0859 82.7422 12.9609C83.1172 13.8359 83.3047 14.7812 83.3047 15.7969V33H79.8359V16.7812C79.8359 15.7969 79.6953 14.9844 79.4141 14.3438C79.1484 13.7031 78.7969 13.1953 78.3594 12.8203C77.9219 12.4297 77.4219 12.1641 76.8594 12.0234C76.3125 11.8672 75.7656 11.7891 75.2188 11.7891C74.5 11.7891 73.7734 11.9531 73.0391 12.2812C72.3203 12.5938 71.6641 13.0391 71.0703 13.6172C70.4922 14.1797 70.0156 14.8516 69.6406 15.6328C69.2812 16.3984 69.1016 17.2344 69.1016 18.1406V33H65.6328V16.7812C65.6328 15.7969 65.4922 14.9844 65.2109 14.3438C64.9297 13.6875 64.5703 13.1719 64.1328 12.7969C63.7109 12.4219 63.2422 12.1562 62.7266 12C62.2109 11.8438 61.7188 11.7656 61.25 11.7656C60.3281 11.7656 59.4688 11.9766 58.6719 12.3984C57.8906 12.8203 57.2031 13.3594 56.6094 14.0156C56.0312 14.6719 55.5703 15.3906 55.2266 16.1719C54.8984 16.9531 54.7344 17.6953 54.7344 18.3984V33H51.2656V9.14062ZM90.3594 9.14062H93.8281V12.8438C94.2188 12.1875 94.6875 11.6016 95.2344 11.0859C95.7812 10.5703 96.3672 10.1328 96.9922 9.77344C97.6172 9.41406 98.2578 9.14062 98.9141 8.95312C99.5703 8.76562 100.203 8.67188 100.812 8.67188C102.406 8.67188 103.82 9 105.055 9.65625C106.305 10.3125 107.359 11.2031 108.219 12.3281C109.078 13.4375 109.727 14.7422 110.164 16.2422C110.617 17.7422 110.844 19.3359 110.844 21.0234C110.844 22.7109 110.625 24.3125 110.188 25.8281C109.75 27.3281 109.109 28.6484 108.266 29.7891C107.422 30.9141 106.383 31.8125 105.148 32.4844C103.914 33.1406 102.5 33.4688 100.906 33.4688C100.297 33.4688 99.6641 33.3828 99.0078 33.2109C98.3672 33.0391 97.7266 32.7891 97.0859 32.4609C96.4609 32.1328 95.8672 31.7266 95.3047 31.2422C94.7422 30.7422 94.25 30.1719 93.8281 29.5312V42.6328H90.3594V9.14062ZM93.8281 21.6328C93.8438 22.8516 94.0234 24 94.3672 25.0781C94.7266 26.1406 95.2031 27.0703 95.7969 27.8672C96.3906 28.6484 97.1016 29.2734 97.9297 29.7422C98.7578 30.1953 99.6641 30.4219 100.648 30.4219C101.68 30.4219 102.609 30.1719 103.438 29.6719C104.266 29.1562 104.969 28.4766 105.547 27.6328C106.141 26.7734 106.594 25.7734 106.906 24.6328C107.219 23.4922 107.375 22.2891 107.375 21.0234C107.375 19.7578 107.219 18.5625 106.906 17.4375C106.594 16.3125 106.141 15.3281 105.547 14.4844C104.969 13.625 104.266 12.9531 103.438 12.4688C102.609 11.9688 101.68 11.7188 100.648 11.7188C99.6328 11.7188 98.7031 11.9609 97.8594 12.4453C97.0312 12.9297 96.3203 13.5938 95.7266 14.4375C95.1328 15.2812 94.6641 16.2656 94.3203 17.3906C93.9922 18.5 93.8281 19.6875 93.8281 20.9531V21.6328ZM135.57 33.1875C135.352 33.2656 135.062 33.3281 134.703 33.375C134.359 33.4375 134.07 33.4688 133.836 33.4688C132.867 33.4688 132.047 33.1016 131.375 32.3672C130.719 31.6172 130.352 30.4766 130.273 28.9453C129.523 29.9141 128.781 30.6953 128.047 31.2891C127.328 31.8828 126.609 32.3438 125.891 32.6719C125.172 32.9844 124.445 33.1953 123.711 33.3047C122.992 33.4141 122.258 33.4688 121.508 33.4688C120.539 33.4688 119.633 33.3125 118.789 33C117.945 32.6875 117.203 32.2422 116.562 31.6641C115.938 31.0859 115.445 30.3906 115.086 29.5781C114.727 28.7656 114.547 27.8594 114.547 26.8594C114.547 25.8594 114.766 25.0078 115.203 24.3047C115.641 23.5859 116.219 22.9688 116.938 22.4531C117.672 21.9375 118.492 21.5078 119.398 21.1641C120.32 20.8047 121.258 20.4922 122.211 20.2266C123.18 19.9453 124.125 19.6797 125.047 19.4297C125.969 19.1797 126.789 18.9062 127.508 18.6094C128.242 18.2969 128.828 17.9453 129.266 17.5547C129.703 17.1484 129.922 16.6484 129.922 16.0547C129.922 15.3672 129.789 14.7578 129.523 14.2266C129.258 13.6953 128.883 13.25 128.398 12.8906C127.914 12.5156 127.328 12.2344 126.641 12.0469C125.953 11.8594 125.195 11.7656 124.367 11.7656C123.664 11.7656 123 11.8594 122.375 12.0469C121.75 12.2188 121.188 12.4766 120.688 12.8203C120.188 13.1641 119.773 13.5859 119.445 14.0859C119.117 14.5859 118.906 15.1641 118.812 15.8203H115.18C115.258 14.6641 115.57 13.6406 116.117 12.75C116.664 11.8594 117.359 11.1172 118.203 10.5234C119.047 9.91406 120 9.45312 121.062 9.14062C122.141 8.82813 123.242 8.67188 124.367 8.67188C125.586 8.67188 126.734 8.82031 127.812 9.11719C128.906 9.41406 129.867 9.86719 130.695 10.4766C131.523 11.0859 132.18 11.8594 132.664 12.7969C133.148 13.7188 133.391 14.8047 133.391 16.0547V28.4062C133.391 29.0156 133.539 29.5078 133.836 29.8828C134.148 30.2422 134.531 30.4219 134.984 30.4219C135.188 30.4219 135.383 30.3906 135.57 30.3281V33.1875ZM129.922 19.7344C129.438 20.25 128.805 20.6797 128.023 21.0234C127.258 21.3516 126.43 21.6484 125.539 21.9141C124.664 22.1797 123.781 22.4375 122.891 22.6875C122 22.9375 121.188 23.2344 120.453 23.5781C119.734 23.9219 119.148 24.3438 118.695 24.8438C118.242 25.3281 118.016 25.9453 118.016 26.6953C118.016 27.3672 118.133 27.9375 118.367 28.4062C118.602 28.875 118.906 29.2656 119.281 29.5781C119.656 29.875 120.086 30.0938 120.57 30.2344C121.055 30.375 121.547 30.4453 122.047 30.4453C123.484 30.4453 124.891 30.0078 126.266 29.1328C127.656 28.2578 128.875 26.9141 129.922 25.1016V19.7344ZM143.891 0.140625V4.19531H140.422V0.140625H143.891ZM143.891 9.14062V33H140.422V9.14062H143.891ZM150.969 9.14062H154.438V12.6562C155.656 11.25 156.969 10.2344 158.375 9.60938C159.781 8.98437 161.227 8.67188 162.711 8.67188C163.82 8.67188 164.812 8.83594 165.688 9.16406C166.562 9.49219 167.305 9.96094 167.914 10.5703C168.523 11.1797 168.984 11.9219 169.297 12.7969C169.625 13.6562 169.789 14.625 169.789 15.7031V33H166.32V16.1484C166.32 15.3359 166.219 14.6562 166.016 14.1094C165.828 13.5469 165.547 13.0938 165.172 12.75C164.812 12.4062 164.367 12.1562 163.836 12C163.305 11.8438 162.711 11.7656 162.055 11.7656C160.992 11.7656 160 11.9531 159.078 12.3281C158.156 12.7031 157.352 13.2031 156.664 13.8281C155.977 14.4375 155.43 15.1484 155.023 15.9609C154.633 16.7578 154.438 17.5859 154.438 18.4453V33H150.969V9.14062ZM178.883 21.6562C178.898 22.75 179.086 23.8281 179.445 24.8906C179.82 25.9375 180.32 26.875 180.945 27.7031C181.586 28.5156 182.336 29.1797 183.195 29.6953C184.055 30.1953 184.984 30.4453 185.984 30.4453C189.359 30.4453 191.602 28.875 192.711 25.7344H195.875C195.609 26.9531 195.164 28.0469 194.539 29.0156C193.914 29.9688 193.156 30.7812 192.266 31.4531C191.375 32.1094 190.391 32.6094 189.312 32.9531C188.234 33.2969 187.125 33.4688 185.984 33.4688C184.344 33.4688 182.859 33.1172 181.531 32.4141C180.219 31.7109 179.094 30.7734 178.156 29.6016C177.219 28.4297 176.5 27.0781 176 25.5469C175.5 24 175.25 22.3828 175.25 20.6953C175.25 19.1172 175.5 17.6016 176 16.1484C176.5 14.6953 177.211 13.4141 178.133 12.3047C179.07 11.1953 180.195 10.3125 181.508 9.65625C182.836 9 184.32 8.67188 185.961 8.67188C187.555 8.67188 188.984 8.96875 190.25 9.5625C191.531 10.1562 192.625 10.9766 193.531 12.0234C194.438 13.0703 195.133 14.2969 195.617 15.7031C196.102 17.1094 196.344 18.6328 196.344 20.2734V21.6562H178.883ZM192.758 18.9844C192.727 17.9844 192.539 17.0469 192.195 16.1719C191.867 15.2969 191.398 14.5312 190.789 13.875C190.195 13.2188 189.469 12.7031 188.609 12.3281C187.75 11.9531 186.789 11.7656 185.727 11.7656C184.758 11.7656 183.859 11.9688 183.031 12.375C182.203 12.7812 181.484 13.3203 180.875 13.9922C180.266 14.6641 179.781 15.4375 179.422 16.3125C179.078 17.1719 178.898 18.0625 178.883 18.9844H192.758Z" fill="#3000E6"/>
<path d="M24.5 21.1406C24.5 19.4531 24.7266 17.8594 25.1797 16.3594C25.6484 14.8438 26.3281 13.5234 27.2188 12.3984C28.125 11.2578 29.2344 10.3516 30.5469 9.67969C31.875 9.00781 33.3906 8.67188 35.0938 8.67188C36.8125 8.67188 38.3359 9.00781 39.6641 9.67969C40.9922 10.3516 42.1094 11.2578 43.0156 12.3984C43.9375 13.5234 44.6328 14.8438 45.1016 16.3594C45.5859 17.8594 45.8281 19.4531 45.8281 21.1406C45.8281 22.8125 45.5859 24.3984 45.1016 25.8984C44.6328 27.3828 43.9375 28.6875 43.0156 29.8125C42.1094 30.9375 40.9922 31.8281 39.6641 32.4844C38.3359 33.1406 36.8125 33.4688 35.0938 33.4688C33.3906 33.4688 31.875 33.1406 30.5469 32.4844C29.2344 31.8281 28.125 30.9375 27.2188 29.8125C26.3281 28.6875 25.6484 27.3828 25.1797 25.8984C24.7266 24.3984 24.5 22.8125 24.5 21.1406ZM27.9688 21.1406C27.9688 22.3906 28.1328 23.5781 28.4609 24.7031C28.7891 25.8125 29.2578 26.7969 29.8672 27.6562C30.4766 28.5 31.2188 29.1719 32.0938 29.6719C32.9844 30.1719 33.9844 30.4219 35.0938 30.4219C36.2031 30.4219 37.2031 30.1719 38.0938 29.6719C39 29.1719 39.7656 28.5 40.3906 27.6562C41.0312 26.7969 41.5156 25.8125 41.8438 24.7031C42.1875 23.5781 42.3594 22.3906 42.3594 21.1406C42.3594 19.8906 42.1875 18.7031 41.8438 17.5781C41.5156 16.4375 41.0312 15.4375 40.3906 14.5781C39.7656 13.7188 39 13.0391 38.0938 12.5391C37.2031 12.0234 36.2031 11.7656 35.0938 11.7656C33.9844 11.7656 32.9844 12.0234 32.0938 12.5391C31.2188 13.0391 30.4766 13.7188 29.8672 14.5781C29.2578 15.4375 28.7891 16.4375 28.4609 17.5781C28.1328 18.7031 27.9688 19.8906 27.9688 21.1406Z" fill="#FF03FF"/>
</svg>
